solid exported
	facet normal 1 0 0
		outer loop
			vertex 217.9999828338623 272.7525734901428 203.74999046325684
			vertex 217.9999828338623 -92.75257349014282 203.74999046325684
			vertex 217.9999828338623 272.7525734901428 -203.74999046325684
		endloop
	endfacet
	facet normal 1 0 0
		outer loop
			vertex 217.9999828338623 -92.75257349014282 203.74999046325684
			vertex 217.9999828338623 -92.75257349014282 -203.74999046325684
			vertex 217.9999828338623 272.7525734901428 -203.74999046325684
		endloop
	endfacet
	facet normal -1 0 0
		outer loop
			vertex -217.9999828338623 272.7525734901428 -203.74999046325684
			vertex -217.9999828338623 -92.75257349014282 -203.74999046325684
			vertex -217.9999828338623 272.7525734901428 203.74999046325684
		endloop
	endfacet
	facet normal -1 0 0
		outer loop
			vertex -217.9999828338623 -92.75257349014282 -203.74999046325684
			vertex -217.9999828338623 -92.75257349014282 203.74999046325684
			vertex -217.9999828338623 272.7525734901428 203.74999046325684
		endloop
	endfacet
	facet normal 0 1 0
		outer loop
			vertex -217.9999828338623 272.7525734901428 -203.74999046325684
			vertex -217.9999828338623 272.7525734901428 203.74999046325684
			vertex 217.9999828338623 272.7525734901428 -203.74999046325684
		endloop
	endfacet
	facet normal 0 1 0
		outer loop
			vertex -217.9999828338623 272.7525734901428 203.74999046325684
			vertex 217.9999828338623 272.7525734901428 203.74999046325684
			vertex 217.9999828338623 272.7525734901428 -203.74999046325684
		endloop
	endfacet
	facet normal 0 -1 0
		outer loop
			vertex -217.9999828338623 -92.75257349014282 203.74999046325684
			vertex -217.9999828338623 -92.75257349014282 -203.74999046325684
			vertex 217.9999828338623 -92.75257349014282 203.74999046325684
		endloop
	endfacet
	facet normal 0 -1 0
		outer loop
			vertex -217.9999828338623 -92.75257349014282 -203.74999046325684
			vertex 217.9999828338623 -92.75257349014282 -203.74999046325684
			vertex 217.9999828338623 -92.75257349014282 203.74999046325684
		endloop
	endfacet
	facet normal 0 0 1
		outer loop
			vertex -217.9999828338623 272.7525734901428 203.74999046325684
			vertex -217.9999828338623 -92.75257349014282 203.74999046325684
			vertex 217.9999828338623 272.7525734901428 203.74999046325684
		endloop
	endfacet
	facet normal 0 0 1
		outer loop
			vertex -217.9999828338623 -92.75257349014282 203.74999046325684
			vertex 217.9999828338623 -92.75257349014282 203.74999046325684
			vertex 217.9999828338623 272.7525734901428 203.74999046325684
		endloop
	endfacet
	facet normal 0 0 -1
		outer loop
			vertex 217.9999828338623 272.7525734901428 -203.74999046325684
			vertex 217.9999828338623 -92.75257349014282 -203.74999046325684
			vertex -217.9999828338623 272.7525734901428 -203.74999046325684
		endloop
	endfacet
	facet normal 0 0 -1
		outer loop
			vertex 217.9999828338623 -92.75257349014282 -203.74999046325684
			vertex -217.9999828338623 -92.75257349014282 -203.74999046325684
			vertex -217.9999828338623 272.7525734901428 -203.74999046325684
		endloop
	endfacet
endsolid exported
